<svg width="169" height="117" viewBox="0 0 169 117" fill="none" xmlns="http://www.w3.org/2000/svg">
<path d="M84.4768 103.06C84.4768 102.276 84.6217 101.567 84.9114 100.936C85.2011 100.304 85.6134 99.767 86.1486 99.3244C86.6877 98.8778 87.3415 98.5358 88.11 98.2985C88.8824 98.0611 89.7475 97.9424 90.705 97.9424C91.7069 97.9424 92.6021 98.0731 93.3906 98.3347C94.1832 98.5962 94.8531 98.9744 95.4003 99.4693C95.9475 99.9641 96.3659 100.57 96.6556 101.286C96.9493 101.998 97.0962 102.809 97.0962 103.718V111.612H94.0666V108.051H94.0847C93.9841 108.457 93.8453 108.836 93.6682 109.186C93.4952 109.536 93.288 109.858 93.0466 110.151C92.8052 110.441 92.5316 110.698 92.2259 110.924C91.9201 111.149 91.5862 111.34 91.224 111.497C90.866 111.654 90.4817 111.773 90.0713 111.853C89.661 111.934 89.2285 111.974 88.7738 111.974C88.0697 111.974 87.428 111.879 86.8486 111.69C86.2733 111.501 85.7804 111.234 85.37 110.888C84.9596 110.538 84.6418 110.119 84.4165 109.632C84.1952 109.141 84.0846 108.598 84.0846 108.003C84.0846 107.383 84.2073 106.828 84.4527 106.337C84.6981 105.846 85.0502 105.43 85.5088 105.088C85.9715 104.742 86.5328 104.478 87.1926 104.297C87.8565 104.116 88.6068 104.026 89.4437 104.026H94.1571V106.15H89.6187C89.2043 106.15 88.8402 106.186 88.5264 106.259C88.2166 106.327 87.9551 106.432 87.7418 106.573C87.5326 106.709 87.3737 106.88 87.265 107.086C87.1564 107.291 87.1021 107.528 87.1021 107.798C87.1021 108.079 87.1604 108.331 87.2771 108.552C87.3978 108.773 87.5728 108.958 87.8022 109.107C88.0315 109.256 88.3151 109.371 88.6531 109.451C88.9911 109.528 89.3793 109.566 89.8179 109.566C90.2283 109.566 90.6185 109.532 90.9887 109.463C91.3588 109.391 91.7008 109.292 92.0146 109.168C92.3285 109.039 92.6121 108.886 92.8656 108.709C93.1191 108.528 93.3343 108.325 93.5113 108.099C93.6924 107.874 93.8292 107.631 93.9217 107.369C94.0183 107.104 94.0666 106.824 94.0666 106.53V103.718C94.0666 103.215 93.9881 102.764 93.8312 102.366C93.6743 101.964 93.447 101.622 93.1492 101.34C92.8555 101.058 92.4974 100.843 92.075 100.694C91.6525 100.546 91.1758 100.471 90.6447 100.471C90.1015 100.471 89.6328 100.533 89.2385 100.658C88.8442 100.779 88.5183 100.952 88.2608 101.177C88.0033 101.398 87.8122 101.67 87.6875 101.992C87.5628 102.31 87.5004 102.666 87.5004 103.06H84.4768Z" fill="#01112B"/>
<path d="M108.798 98.3045H111.828V109.512C111.828 110.574 111.665 111.537 111.339 112.402C111.017 113.271 110.56 114.012 109.969 114.623C109.378 115.239 108.663 115.714 107.827 116.048C106.994 116.382 106.064 116.548 105.038 116.548C104.419 116.548 103.829 116.488 103.27 116.367C102.715 116.247 102.2 116.074 101.725 115.848C101.25 115.623 100.82 115.352 100.434 115.034C100.051 114.716 99.7254 114.358 99.4559 113.959C99.1863 113.565 98.9791 113.137 98.8343 112.674C98.6894 112.211 98.617 111.72 98.617 111.201H101.641C101.641 111.616 101.725 111.998 101.894 112.348C102.067 112.702 102.304 113.008 102.606 113.265C102.908 113.523 103.264 113.724 103.674 113.869C104.089 114.014 104.537 114.086 105.02 114.086C105.592 114.086 106.111 113.98 106.577 113.766C107.044 113.553 107.44 113.247 107.766 112.849C108.096 112.455 108.35 111.976 108.527 111.413C108.708 110.849 108.798 110.22 108.798 109.524V106.917L108.816 106.904C108.659 107.572 108.436 108.172 108.146 108.703C107.857 109.23 107.507 109.679 107.096 110.049C106.69 110.419 106.229 110.703 105.714 110.9C105.203 111.093 104.642 111.189 104.03 111.189C103.503 111.189 103.002 111.115 102.528 110.966C102.053 110.817 101.614 110.606 101.212 110.332C100.81 110.055 100.446 109.719 100.12 109.325C99.7979 108.93 99.5223 108.488 99.2929 107.997C99.0676 107.502 98.8926 106.965 98.7679 106.385C98.6472 105.802 98.5868 105.186 98.5868 104.539C98.5868 103.891 98.6472 103.277 98.7679 102.698C98.8926 102.119 99.0676 101.586 99.2929 101.099C99.5223 100.612 99.7979 100.173 100.12 99.7831C100.446 99.3928 100.81 99.0629 101.212 98.7933C101.614 98.5197 102.053 98.3105 102.528 98.1657C103.002 98.0168 103.505 97.9424 104.036 97.9424C104.644 97.9424 105.203 98.0389 105.714 98.2321C106.229 98.4252 106.69 98.7048 107.096 99.0709C107.507 99.433 107.857 99.8756 108.146 100.399C108.436 100.922 108.659 101.515 108.816 102.179L108.798 102.167V98.3045ZM108.798 104.539C108.798 104.116 108.76 103.726 108.683 103.368C108.611 103.006 108.504 102.678 108.364 102.384C108.223 102.09 108.048 101.831 107.839 101.606C107.629 101.38 107.388 101.191 107.114 101.038C106.841 100.885 106.537 100.771 106.203 100.694C105.873 100.614 105.515 100.574 105.129 100.574C104.562 100.574 104.061 100.658 103.626 100.827C103.192 100.992 102.825 101.242 102.528 101.575C102.23 101.909 102.005 102.324 101.852 102.819C101.703 103.31 101.628 103.883 101.628 104.539C101.628 105.195 101.705 105.772 101.858 106.271C102.011 106.77 102.234 107.19 102.528 107.532C102.825 107.87 103.192 108.126 103.626 108.299C104.061 108.472 104.562 108.558 105.129 108.558C105.515 108.558 105.873 108.518 106.203 108.437C106.537 108.353 106.839 108.234 107.108 108.081C107.382 107.924 107.623 107.731 107.833 107.502C108.046 107.269 108.223 107.003 108.364 106.705C108.504 106.408 108.611 106.078 108.683 105.716C108.76 105.353 108.798 104.961 108.798 104.539Z" fill="#01112B"/>
<path d="M116.217 105.1C116.217 105.768 116.303 106.369 116.476 106.904C116.653 107.436 116.905 107.888 117.23 108.262C117.556 108.637 117.951 108.924 118.413 109.125C118.88 109.323 119.403 109.421 119.982 109.421C120.377 109.421 120.741 109.375 121.075 109.282C121.409 109.186 121.71 109.043 121.98 108.854C122.25 108.661 122.489 108.423 122.698 108.142C122.907 107.856 123.084 107.526 123.229 107.152H126.15C125.973 107.904 125.696 108.578 125.317 109.174C124.943 109.769 124.487 110.276 123.947 110.694C123.412 111.109 122.803 111.425 122.119 111.642C121.435 111.863 120.697 111.974 119.904 111.974C118.91 111.974 118.007 111.805 117.194 111.467C116.382 111.129 115.683 110.652 115.1 110.037C114.517 109.421 114.066 108.681 113.748 107.816C113.43 106.951 113.271 105.993 113.271 104.943C113.271 103.897 113.428 102.945 113.742 102.088C114.06 101.227 114.507 100.489 115.082 99.8736C115.657 99.258 116.347 98.7833 117.152 98.4493C117.957 98.1114 118.848 97.9424 119.826 97.9424C120.795 97.9424 121.672 98.1073 122.457 98.4373C123.241 98.7672 123.911 99.2359 124.467 99.8434C125.026 100.447 125.456 101.179 125.758 102.04C126.06 102.897 126.211 103.855 126.211 104.913C126.211 105.07 126.207 105.227 126.199 105.384C126.195 105.541 126.182 105.705 126.162 105.878H115.354V103.706H124.635L123.259 105.848C123.272 105.703 123.28 105.557 123.284 105.408C123.292 105.255 123.296 105.106 123.296 104.961C123.296 104.233 123.219 103.591 123.066 103.036C122.918 102.477 122.696 102.008 122.403 101.63C122.113 101.248 121.753 100.96 121.322 100.767C120.896 100.57 120.403 100.471 119.844 100.471C119.276 100.471 118.769 100.57 118.323 100.767C117.876 100.964 117.496 101.252 117.182 101.63C116.872 102.004 116.633 102.461 116.464 103C116.299 103.539 116.217 104.146 116.217 104.822V105.1Z" fill="#01112B"/>
<path d="M130.688 104.521V111.612H127.659V98.3045H130.688V102.294L130.67 102.306C130.819 101.614 131.036 100.998 131.322 100.459C131.608 99.9158 131.956 99.4592 132.366 99.089C132.776 98.7149 133.245 98.4312 133.772 98.2381C134.299 98.041 134.873 97.9424 135.492 97.9424C136.232 97.9424 136.89 98.0792 137.466 98.3528C138.041 98.6223 138.524 99.0166 138.914 99.5356C139.308 100.055 139.608 100.692 139.813 101.449C140.023 102.205 140.127 103.064 140.127 104.026V111.612H137.098V104.327C137.098 103.708 137.035 103.169 136.91 102.71C136.79 102.247 136.603 101.861 136.349 101.551C136.1 101.242 135.788 101.01 135.414 100.857C135.04 100.7 134.601 100.622 134.098 100.622C133.736 100.622 133.402 100.662 133.096 100.743C132.79 100.819 132.511 100.932 132.257 101.081C132.004 101.229 131.779 101.415 131.581 101.636C131.388 101.857 131.225 102.113 131.093 102.402C130.96 102.692 130.859 103.014 130.791 103.368C130.722 103.722 130.688 104.106 130.688 104.521Z" fill="#01112B"/>
<path d="M144.555 104.955C144.555 105.635 144.636 106.245 144.797 106.784C144.962 107.319 145.199 107.774 145.509 108.148C145.819 108.518 146.195 108.801 146.637 108.999C147.084 109.196 147.587 109.294 148.146 109.294C148.629 109.294 149.055 109.224 149.426 109.083C149.796 108.938 150.114 108.739 150.379 108.486C150.645 108.232 150.86 107.934 151.025 107.592C151.19 107.246 151.311 106.874 151.387 106.476H154.411C154.306 107.265 154.089 107.995 153.759 108.667C153.429 109.339 152.994 109.92 152.455 110.411C151.92 110.898 151.29 111.28 150.566 111.557C149.842 111.835 149.033 111.974 148.14 111.974C147.484 111.974 146.865 111.897 146.281 111.745C145.698 111.596 145.161 111.378 144.67 111.093C144.183 110.807 143.743 110.459 143.348 110.049C142.958 109.638 142.626 109.174 142.353 108.655C142.083 108.136 141.876 107.566 141.731 106.947C141.586 106.323 141.514 105.659 141.514 104.955C141.514 104.251 141.586 103.589 141.731 102.97C141.876 102.35 142.083 101.781 142.353 101.262C142.626 100.739 142.958 100.272 143.348 99.8615C143.739 99.4511 144.179 99.1051 144.67 98.8235C145.161 98.5378 145.698 98.3206 146.281 98.1717C146.865 98.0188 147.484 97.9424 148.14 97.9424C149.033 97.9424 149.842 98.0812 150.566 98.3588C151.295 98.6364 151.926 99.0206 152.461 99.5115C152.996 99.9983 153.429 100.578 153.759 101.25C154.089 101.922 154.306 102.652 154.411 103.44H151.387C151.311 103.042 151.19 102.67 151.025 102.324C150.86 101.978 150.645 101.68 150.379 101.431C150.114 101.177 149.796 100.98 149.426 100.839C149.055 100.694 148.629 100.622 148.146 100.622C147.587 100.622 147.084 100.721 146.637 100.918C146.195 101.111 145.819 101.394 145.509 101.769C145.199 102.139 144.962 102.593 144.797 103.133C144.636 103.668 144.555 104.275 144.555 104.955Z" fill="#01112B"/>
<path d="M165.073 98.3045H168.169L162.876 112.221C162.591 112.97 162.257 113.615 161.874 114.159C161.496 114.702 161.06 115.15 160.565 115.504C160.07 115.863 159.515 116.126 158.899 116.295C158.284 116.464 157.598 116.548 156.841 116.548C156.588 116.548 156.336 116.538 156.087 116.518C155.837 116.498 155.586 116.468 155.332 116.428V113.899C155.578 113.931 155.803 113.955 156.008 113.972C156.218 113.988 156.417 113.996 156.606 113.996C156.996 113.996 157.35 113.959 157.668 113.887C157.986 113.819 158.272 113.708 158.525 113.555C158.778 113.406 159.002 113.215 159.195 112.982C159.388 112.748 159.553 112.473 159.69 112.155L160.088 111.123L159.883 112.493L154.56 98.3045H157.728L161.881 110.592H160.867L165.073 98.3045Z" fill="#01112B"/>
<path d="M40.5987 94.2483C40.5987 94.4813 40.4822 94.8309 40.2491 95.064C40.1326 95.2971 39.783 95.4136 39.5499 95.4136H25.3331C24.7504 95.4136 24.2843 94.9475 24.2843 94.3648L23.0024 78.2834C23.0024 77.8173 22.5363 77.3512 21.9537 77.3512H14.7287C14.2626 77.3512 13.7964 77.8173 13.7964 78.2834L12.6311 94.3648C12.6311 94.9475 12.165 95.2971 11.5823 95.2971H0.977969C0.744906 95.2971 0.511842 95.2971 0.278779 95.064C0.0457159 94.8309 -0.0708157 94.4813 0.0457159 94.2483L7.85333 14.6572C7.85333 14.1911 8.31946 13.7249 8.78559 13.7249H30.6935C31.1597 13.7249 31.6258 14.1911 31.7423 14.6572L40.5987 94.2483Z" fill="#01112B"/>
<path d="M39.3069 14.8902C39.1903 14.6572 39.3069 14.3076 39.5399 14.0745C39.773 13.8415 40.006 13.7249 40.2391 13.7249H54.456C55.0386 13.7249 55.5048 14.1911 55.5048 14.7737L60.3991 78.0504C60.5156 78.633 60.9817 79.0992 61.4479 79.0992H61.7975C62.3801 79.0992 62.8462 78.633 62.8462 78.0504L67.1579 14.7737C67.1579 14.1911 67.624 13.7249 68.2067 13.7249H78.8111C79.0441 13.7249 79.3937 13.8415 79.5103 14.0745C79.7433 14.3076 79.8599 14.6572 79.8599 14.8902L72.0522 94.4813C71.9357 94.9475 71.4696 95.2971 71.0035 95.2971H49.0955C48.6294 95.2971 48.1633 94.9475 48.0467 94.4813L39.3069 14.8902Z" fill="#01112B"/>
<path d="M83.7273 54.511V14.7737C83.7273 14.1911 84.1934 13.7249 84.776 13.7249H98.9929C99.5756 13.7249 100.042 14.1911 100.042 14.7737V54.511C100.042 66.7468 101.207 78.9826 104.12 78.9826C106.917 78.9826 108.199 66.7468 108.199 54.511V14.7737C108.199 14.1911 108.665 13.7249 109.131 13.7249H123.465C124.047 13.7249 124.513 14.1911 124.513 14.7737V54.511C124.513 87.1398 115.307 95.2971 104.12 95.2971C92.8167 95.2971 83.7273 87.2564 83.7273 54.511Z" fill="#01112B"/>
<path d="M160.245 0.582657C160.361 0.932255 160.361 1.28185 160.128 1.51491L149.058 9.18019C148.941 9.52978 148.592 9.64632 148.242 9.64632H141.017C140.668 9.64632 140.434 9.52978 140.201 9.18019C139.968 8.94713 139.968 8.59754 140.085 8.24794L142.532 0.699188C142.649 0.23306 142.998 0 143.464 0H159.313C159.662 0 160.012 0.23306 160.245 0.582657ZM168.169 94.2483C168.169 94.4813 168.052 94.8309 167.819 95.064C167.703 95.2971 167.353 95.4136 167.12 95.4136H152.903C152.321 95.4136 151.855 94.9475 151.855 94.3648L150.573 78.2834C150.573 77.8173 150.107 77.3512 149.524 77.3512H142.299C141.833 77.3512 141.367 77.8173 141.367 78.4L140.201 94.3648C140.201 94.9475 139.735 95.2971 139.153 95.2971H128.548C128.315 95.2971 127.966 95.2971 127.849 95.064C127.616 94.8309 127.499 94.4813 127.616 94.2483L135.424 14.6572C135.424 14.1911 135.89 13.7249 136.356 13.7249H158.264C158.73 13.7249 159.196 14.1911 159.313 14.6572L168.169 94.2483Z" fill="#01112B"/>
</svg>
