<svg width="596" height="338" viewBox="0 0 596 338" fill="none" xmlns="http://www.w3.org/2000/svg">
<path d="M143.732 333.669C143.732 334.494 143.32 335.732 142.495 336.557C142.082 337.382 140.844 337.794 140.019 337.794H89.6871C87.6243 337.794 85.9741 336.144 85.9741 334.081L81.4359 277.148C81.4359 275.498 79.7857 273.848 77.7229 273.848H52.1443C50.494 273.848 48.8438 275.498 48.8438 277.148L44.7182 334.081C44.7182 336.144 43.068 337.382 41.0052 337.382H3.46232C2.6372 337.382 1.81208 337.382 0.986967 336.557C0.161849 335.732 -0.25071 334.494 0.161849 333.669L27.8033 51.8911C27.8033 50.2408 29.4535 48.5906 31.1038 48.5906H108.665C110.315 48.5906 111.965 50.2408 112.378 51.8911L143.732 333.669Z" fill="black"/>
<path d="M139.159 52.7162C138.746 51.8911 139.159 50.6534 139.984 49.8283C140.809 49.0031 141.634 48.5906 142.459 48.5906H192.791C194.854 48.5906 196.504 50.2408 196.504 52.3036L213.832 269.323C214.244 271.386 215.895 273.036 217.545 273.036H218.783C220.845 273.036 222.496 271.386 222.496 269.323L237.76 52.3036C237.76 50.2408 239.411 48.5906 241.473 48.5906H279.016C279.841 48.5906 281.079 49.0031 281.492 49.8283C282.317 50.6534 282.729 51.8911 282.729 52.7162L255.088 334.494C254.675 336.144 253.025 337.382 251.375 337.382H173.814C172.163 337.382 170.513 336.144 170.101 334.494L139.159 52.7162Z" fill="black"/>
<path d="M296.421 192.986V52.3036C296.421 50.2408 298.071 48.5906 300.134 48.5906H350.466C352.529 48.5906 354.179 50.2408 354.179 52.3036V192.986C354.179 236.305 358.36 273.014 368.674 273.014C378.575 273.014 383.058 236.305 383.058 192.986V52.3036C383.058 50.2408 384.709 48.5906 386.359 48.5906H437.104C439.166 48.5906 440.817 50.2408 440.817 52.3036V192.986C440.817 308.503 408.224 337.382 368.619 337.382C328.601 337.382 296.421 308.915 296.421 192.986Z" fill="black"/>
<path d="M553.681 2.06279C554.094 3.30048 554.094 4.53814 553.269 5.36327L527.712 32.5008C527.299 33.7385 526.062 34.151 524.824 34.151H499.245C498.008 34.151 497.182 33.7385 496.357 32.5008C495.532 31.6757 495.532 30.438 495.945 29.2003L504.609 2.47535C505.021 0.825107 506.259 0 507.909 0L550.381 0C551.619 0 552.856 0.825107 553.681 2.06279ZM595.371 333.669C595.371 334.494 594.959 335.732 594.134 336.557C593.721 337.382 592.484 337.794 591.659 337.794H541.326C539.263 337.794 537.613 336.144 537.613 334.081L533.075 277.148C533.075 275.498 531.425 273.848 529.362 273.848H503.783C502.133 273.848 500.483 275.498 500.483 277.561L496.357 334.081C496.357 336.144 494.707 337.382 492.644 337.382H455.102C454.276 337.382 453.039 337.382 452.626 336.557C451.801 335.732 451.388 334.494 451.801 333.669L479.442 51.8911C479.442 50.2408 481.093 48.5906 482.743 48.5906H560.304C561.954 48.5906 563.604 50.2408 564.017 51.8911L595.371 333.669Z" fill="black"/>
</svg>
