<svg width="173" height="190" viewBox="0 0 173 190" fill="none" xmlns="http://www.w3.org/2000/svg">
<path d="M80.1719 0C104.457 0 125.112 20.1222 129.995 48.1094C131.429 47.9178 132.878 47.794 134.354 47.7939C155.484 47.7939 172.677 68.1478 172.677 93.166C172.677 116.691 157.476 136.081 138.092 138.314L145.807 148.008H136.557V168.051C136.557 169.269 135.572 170.253 134.354 170.253C133.136 170.253 132.151 169.269 132.151 168.051V148.008H122.681L129.706 138.167C117.443 136.4 106.963 127.765 101.087 115.601C95.9464 118.429 90.429 120.217 84.6387 120.95L95.3692 134.57H82.8155V141.398C82.8154 145.936 78.9825 149.768 74.4454 149.768H69.6006C67.7484 149.768 66.2971 151.219 66.2969 153.071C66.2969 155.144 67.7483 156.596 69.6006 156.596H89.8633C94.1868 156.596 97.5723 159.981 97.5723 164.305C97.5721 168.628 94.1867 172.013 89.8633 172.013H81.7139C80.5444 172.013 79.2911 172.989 79.2911 174.438V187.213C79.2909 188.431 78.3045 189.415 77.0889 189.415C75.8733 189.415 74.886 188.431 74.8858 187.213V174.44C74.8858 170.674 77.9499 167.61 81.7139 167.61H89.8633C91.7156 167.61 93.167 166.159 93.1671 164.307C93.1671 162.454 91.7156 161.003 89.8633 161.003H69.6006C65.2793 161.003 61.8917 157.617 61.8917 153.294C61.8917 148.75 65.2794 145.365 69.6006 145.365H74.4454C76.5201 145.365 78.4102 143.475 78.4102 141.4V134.573H64.0938L73.8399 120.887C70.0362 120.393 66.0387 119.228 62.1094 117.457C58.4753 130.469 48.8283 139.72 37.2784 141.222L42.2891 147.788H35.9024V168.051C35.9024 169.269 34.9151 170.253 33.6993 170.253C32.4836 170.253 31.4971 169.269 31.4971 168.051V147.788H24.669L29.6866 140.911C14.8307 138.519 3.96588 123.961 3.96588 106.16C3.96603 88.2276 15.1813 73.3543 29.8653 71.1826C29.3433 67.4846 29.0743 63.9866 29.0743 60.5684C29.0745 27.17 51.9956 0.000214627 80.1719 0ZM30.6495 75.5195C18.0359 77.2925 8.3713 90.3618 8.37115 106.16C8.37115 117.547 13.3174 127.406 20.8565 132.714C24.4686 133.764 28.2021 134.048 31.9376 133.474C32.5982 133.253 33.479 133.253 34.1397 133.033C34.8005 132.813 35.2417 132.592 35.9024 132.372C44.4412 129.119 50.3038 121.335 52.3741 111.671C52.1826 111.53 51.9865 111.392 51.795 111.253C41.201 102.914 33.6273 89.9832 30.6495 75.5195ZM134.354 52.1992C115.65 52.1994 100.436 70.5773 100.436 93.166C100.436 104.683 104.402 115.085 110.756 122.534C114.683 124.303 118.954 125.322 123.341 125.322C143.384 125.322 159.462 105.94 159.462 81.9326C159.462 74.006 157.645 66.7332 154.621 60.3945C148.959 55.2716 141.957 52.1992 134.354 52.1992ZM80.1719 4.40527C54.425 4.40549 33.4797 29.5993 33.4796 60.5684C33.4796 64.4514 33.8297 68.4404 34.5499 72.7617C37.0211 86.9745 44.2713 99.7273 54.4424 107.733C56.7991 109.447 59.0769 111.103 61.5547 112.341C66.3231 114.836 71.2876 116.351 75.9503 116.741C77.7695 117.034 79.4261 117.028 81.1661 116.854C81.7891 116.79 82.4122 116.732 83.0352 116.732C88.6824 116.177 94.2113 114.418 99.3409 111.53C97.2287 105.907 96.0304 99.7051 96.0303 93.166C96.0303 71.6806 108.724 53.6771 125.69 49.0078C121.218 23.069 102.333 4.40527 80.1719 4.40527ZM8.16608 47.5518C8.90611 46.5873 10.2893 46.4042 11.254 47.1484C13.0996 48.569 14.3061 50.587 14.6475 52.8291C14.9977 55.1262 14.4056 57.41 12.9786 59.2666C11.558 61.1145 9.54006 62.3217 7.29791 62.6631C6.86854 62.7291 6.437 62.7622 6.00983 62.7578C4.15974 62.7578 2.36912 62.15 0.860413 60.9893C-0.104283 60.2492 -0.28515 58.8661 0.457092 57.9014C1.19707 56.9368 2.58031 56.7538 3.54498 57.498C4.43697 58.1852 5.53606 58.4696 6.63287 58.3066C7.7473 58.1371 8.76055 57.5227 9.48737 56.5801C10.9079 54.7366 10.5031 52.1286 8.5694 50.6396C7.6047 49.8974 7.42383 48.5165 8.16608 47.5518ZM79.2784 13.2285C80.4786 13.0987 81.5735 13.9733 81.7012 15.1846C81.8309 16.3957 80.9541 17.4794 79.7452 17.6094C74.0253 18.2217 67.2741 19.5585 59.5235 27.7275C51.7004 35.771 50.2275 44.1163 49.7452 46.8584C49.5558 47.9266 48.6278 48.6777 47.5772 48.6777C47.4497 48.6777 47.3222 48.6665 47.1924 48.6445C45.9943 48.4309 45.1949 47.29 45.4063 46.0918C45.9481 43.0192 47.5974 33.6697 56.3477 24.6748C64.6908 15.8824 72.3009 13.9752 79.2784 13.2285ZM100.436 26.8701C104.935 26.8703 108.584 30.5178 108.584 35.0195C108.584 39.5191 104.935 43.1688 100.436 43.1689C95.9337 43.1689 92.2862 39.5192 92.2862 35.0195C92.2863 30.5177 95.9359 26.8701 100.436 26.8701ZM152.507 17.6602C152.853 16.4951 154.073 15.8296 155.242 16.1709C156.41 16.5145 157.075 17.739 156.732 18.9062L153.868 28.5977C153.538 29.7141 152.403 30.381 151.263 30.1191L142.692 28.1543L140.426 35.6562C140.137 36.6077 139.265 37.2226 138.318 37.2227C138.107 37.2227 137.893 37.1918 137.682 37.1279C136.514 36.7755 135.859 35.5464 136.211 34.3857L139.073 24.915C139.41 23.805 140.547 23.153 141.675 23.4062L150.232 25.3662L152.507 17.6602Z" fill="#01112B"/>
</svg>
