<svg width="96" height="99" viewBox="0 0 96 99" fill="none" xmlns="http://www.w3.org/2000/svg">
<path d="M82.2482 46.1221C82.3993 46.1221 82.5443 46.1587 82.6818 46.21C82.7129 46.2224 82.7417 46.2324 82.7716 46.2461C82.8978 46.3048 83.0151 46.3799 83.1163 46.4785C83.1326 46.4948 83.1443 46.514 83.1593 46.5303C83.2079 46.5838 83.2591 46.636 83.299 46.6982L95.799 66.1982C96.045 66.5844 96.0627 67.0718 95.8429 67.4717C95.6242 67.8742 95.2025 68.123 94.7462 68.123H83.4962V97.3721C83.4962 98.0633 82.9374 98.6221 82.2462 98.6221H13.7482C13.0584 98.6219 12.4982 98.0632 12.4982 97.3721V68.123H1.24915C0.791658 68.123 0.37121 67.8739 0.152466 67.4727C-0.0659922 67.0716 -0.0486398 66.5843 0.197388 66.1982L12.6974 46.6982C12.7374 46.6346 12.7891 46.582 12.839 46.5283C12.8538 46.5122 12.8639 46.4934 12.88 46.4785C12.9811 46.3799 13.0984 46.3038 13.2257 46.2451C13.2544 46.2314 13.2846 46.2212 13.3146 46.21C13.452 46.1588 13.5971 46.1221 13.7482 46.1221H82.2482ZM41.7482 96.1221H80.9962V68.123H52.9991C52.5729 68.123 52.1764 67.9053 51.9464 67.5479L41.7482 51.6396V96.1221ZM29.0509 67.5479C28.8209 67.9053 28.4244 68.123 27.9982 68.123H14.9982V95.6514L39.2482 84.0938V51.6396L29.0509 67.5479ZM77.2472 92.3721H65.1222V86.998H77.2472V92.3721ZM3.53528 65.623H27.3146L38.212 48.624H14.4327L3.53528 65.623ZM53.6808 65.623H92.4601L81.5626 48.624H42.7843L53.6808 65.623ZM70.3634 31.5107C70.7684 30.9545 71.5505 30.8318 72.1105 31.2393C72.6666 31.6467 72.7883 32.4291 72.381 32.9854L68.631 38.1104C68.386 38.4453 68.0065 38.623 67.6202 38.623C67.3642 38.623 67.1065 38.5442 66.8829 38.3818C66.3267 37.9743 66.2059 37.191 66.6134 36.6348L70.3634 31.5107ZM46.8722 10.25C53.7756 10.25 59.372 15.8456 59.3722 22.749C59.3722 29.6526 53.7757 35.249 46.8722 35.249C39.9688 35.2489 34.3732 29.6525 34.3732 22.749C34.3734 15.8457 39.9689 10.2502 46.8722 10.25ZM18.1134 25.1152C19.9609 23.2668 22.9723 23.2532 24.9659 25.0781C25.9458 25.9756 26.4718 27.2048 26.4493 28.5371C26.4292 29.7843 25.9291 31.0027 25.0431 31.9688C24.7982 32.2374 24.4608 32.3739 24.1222 32.374C23.821 32.374 23.5184 32.2649 23.2784 32.0449C22.7698 31.5787 22.7348 30.788 23.2023 30.2793C23.6746 29.7631 23.941 29.1293 23.9523 28.4932C23.9585 28.0645 23.8481 27.4421 23.2784 26.9209C22.2747 26.001 20.7832 25.9842 19.882 26.8828C19.3945 27.3703 18.6021 27.3715 18.1134 26.8828C17.6247 26.3941 17.6247 25.604 18.1134 25.1152ZM53.006 18.3662C52.5185 17.8787 51.7271 17.8787 51.2384 18.3662L44.9972 24.6064L42.506 22.1152C42.0186 21.6283 41.228 21.6283 40.7394 22.1152C40.2506 22.6027 40.2506 23.3953 40.7394 23.8828L44.1134 27.2578C44.6009 27.7465 45.3922 27.7465 45.881 27.2578L53.006 20.1328C53.4945 19.6454 53.4945 18.8549 53.006 18.3662ZM66.8722 0C69.3521 4.00573e-05 71.3722 2.01884 71.3722 4.5C71.3721 6.98109 69.352 8.99996 66.8722 9C64.3923 9 62.3723 6.98112 62.3722 4.5C62.3722 2.01882 64.3923 0 66.8722 0ZM66.8722 2.5C65.7697 2.5 64.8722 3.39753 64.8722 4.5C64.8723 5.60241 65.7698 6.5 66.8722 6.5C67.9746 6.49996 68.8721 5.60238 68.8722 4.5C68.8722 3.39756 67.9746 2.50004 66.8722 2.5Z" fill="#8BED02"/>
</svg>
