<svg width="91" height="105" viewBox="0 0 91 105" fill="none" xmlns="http://www.w3.org/2000/svg">
<path d="M41.5234 0C48.7793 6.79003e-05 54.6677 5.71378 54.9287 13.0088L55.6973 35.7227C55.7196 35.7214 55.7374 35.71 55.7598 35.71H58.7256C64.1711 35.71 68.8586 40.2481 69.3984 46.04L71.417 72.5166C71.4418 72.845 71.3276 73.1712 71.1035 73.4131C70.8793 73.6551 70.5632 73.793 70.2334 73.793H51.1504C51.2145 73.9389 51.2517 74.0979 51.2529 74.2676C51.2529 80.1721 47.4943 85.3932 41.8994 87.2559C41.8971 87.257 41.8958 87.2558 41.8936 87.2568C41.775 87.296 41.6503 87.3174 41.5234 87.3174C41.3965 87.3174 41.2719 87.296 41.1533 87.2568C41.1521 87.2557 41.1496 87.2559 41.1484 87.2559C37.9511 86.1905 35.3573 84.0261 33.7178 81.2666C33.5648 81.3389 33.399 81.3857 33.2188 81.3857C26.0235 81.3857 20.1691 87.2403 20.1689 94.4355C20.1689 95.0915 19.6371 95.6219 18.9824 95.6221C18.3275 95.6221 17.7959 95.0916 17.7959 94.4355C17.796 91.4484 18.6629 88.6661 20.1387 86.3018C19.745 86.2769 19.3489 86.25 18.9824 86.25C9.82357 86.25 2.37305 93.7005 2.37305 102.859C2.37293 103.515 1.84127 104.046 1.18652 104.046C0.531711 104.046 0.00011299 103.515 0 102.859C0 92.3931 8.51618 83.877 18.9824 83.877C19.9018 83.877 20.8806 83.9636 21.8379 84.0645C24.5416 81.0986 28.3774 79.1952 32.6602 79.041C32.105 77.5427 31.7949 75.9343 31.7949 74.2676C31.7949 74.098 31.8315 73.9388 31.8955 73.793H12.6943C12.3645 73.793 12.0484 73.6551 11.8242 73.4131C11.599 73.1712 11.4869 72.845 11.5117 72.5166L13.5283 46.0596C14.0683 40.2477 18.7568 35.71 24.2021 35.71H27.168C27.232 35.71 27.2869 35.7378 27.3486 35.7461L28.1182 13.0098C28.378 5.71356 34.2664 0 41.5234 0ZM61.9287 79.0127C67.5581 79.0127 72.6374 82.423 74.8809 87.6016C75.7515 87.4189 76.6553 87.3174 77.5889 87.3174C84.7071 87.3174 90.2833 92.8935 90.2822 100.012C90.2822 100.668 89.7518 101.198 89.0957 101.198C88.4398 101.198 87.9092 100.668 87.9092 100.012C87.9091 94.2234 83.376 89.6904 77.5889 89.6904C71.8007 89.6906 67.2676 94.2236 67.2676 100.012C67.2676 100.668 66.7371 101.198 66.0811 101.198C65.4251 101.198 64.8945 100.668 64.8945 100.012C64.8946 94.6768 68.0268 90.2089 72.5918 88.3047C70.671 84.1251 66.5211 81.3857 61.9287 81.3857C55.4524 81.3859 50.1836 86.6545 50.1836 93.1309C50.1836 93.7869 49.6531 94.3174 48.9971 94.3174C48.3412 94.3172 47.8115 93.7868 47.8115 93.1309C47.8115 85.3471 54.1438 79.0129 61.9287 79.0127ZM44.0146 75.9287C44.0144 77.3522 42.8278 78.4199 41.4043 78.4199C39.981 78.4197 38.9137 77.352 38.7949 75.9287L38.7041 73.7939H34.0674C34.1302 73.9387 34.168 74.098 34.168 74.2676C34.168 79.0142 37.109 83.2188 41.5234 84.8643C45.9367 83.2188 48.8788 79.0142 48.8789 74.2676C48.8789 74.098 48.9165 73.9388 48.9805 73.793H44.1064L44.0146 75.9287ZM27.2705 38.0625C27.2349 38.0649 27.2036 38.083 27.168 38.083H24.2021C19.9691 38.083 16.3185 41.6754 15.8926 46.2607L13.9746 71.4199H26.1396L27.2705 38.0625ZM56.9062 71.4199H68.9531L67.0342 46.2402C66.6094 41.6739 62.9574 38.083 58.7256 38.083H55.7764L56.9062 71.4199ZM41.2861 2.58105C31.2504 2.8263 30.4981 12.9811 30.4932 13.0498C30.492 13.064 30.4902 13.0786 30.4902 13.0928L28.7598 64.1836H54.2871L52.5576 13.0908C52.5564 13.0766 52.5547 13.0629 52.5547 13.0498C52.547 12.9818 51.3237 2.33583 41.2861 2.58105ZM41.5234 19.5752C45.5144 19.5752 48.7607 22.8215 48.7607 26.8125C48.7606 30.8033 45.5131 34.0488 41.5234 34.0488C37.5326 34.0488 34.2863 30.8033 34.2861 26.8125C34.2861 22.8215 37.5325 19.5752 41.5234 19.5752ZM72.0049 24.668C72.4687 24.2043 73.2188 24.2043 73.6826 24.668C74.1464 25.1318 74.1463 25.8818 73.6826 26.3457C73.2188 26.8107 72.962 27.4183 72.9619 28.0576C72.9619 28.697 73.2176 29.3045 73.6826 29.7695C74.6115 30.6985 76.1775 30.6985 77.1064 29.7695C77.5703 29.3058 78.3204 29.3057 78.7842 29.7695C79.248 30.2334 79.2479 30.9834 78.7842 31.4473C77.8719 32.3608 76.6675 32.8623 75.3945 32.8623C74.1215 32.8623 72.9172 32.3596 72.0049 31.4473C71.0926 30.535 70.5898 29.3306 70.5898 28.0576C70.5899 26.7847 71.0914 25.5802 72.0049 24.668ZM41.5234 21.9482C38.841 21.9482 36.6592 24.1301 36.6592 26.8125C36.6594 29.4948 38.8411 31.6768 41.5234 31.6768C44.2057 31.6767 46.3875 29.4947 46.3877 26.8125C46.3877 24.1301 44.2058 21.9483 41.5234 21.9482ZM13.8809 18.7285C14.3483 18.2694 15.1007 18.2777 15.5586 18.7451C16.016 19.2124 16.0089 19.964 15.542 20.4219L13.3799 22.541L15.542 24.6602C16.0091 25.1181 16.0176 25.8694 15.5586 26.3379C15.3261 26.5752 15.0182 26.6934 14.7109 26.6934C14.4121 26.6933 14.1121 26.5809 13.8809 26.3545L11.6855 24.2021L9.49121 26.3545C9.25987 26.5811 8.95911 26.6934 8.66016 26.6934C8.35308 26.6933 8.04589 26.575 7.81348 26.3379C7.35436 25.8705 7.3627 25.1181 7.83008 24.6602L9.99121 22.541L7.83008 20.4219C7.36293 19.964 7.3546 19.2137 7.81348 18.7451C8.27261 18.2777 9.02259 18.2706 9.49121 18.7285L11.6855 20.8799L13.8809 18.7285Z" fill="#8BED02"/>
</svg>
