<svg width="92" height="74" viewBox="0 0 92 74" fill="none" xmlns="http://www.w3.org/2000/svg">
<path d="M77.1299 0C80.9576 0.000224177 84.0713 3.31266 84.0713 7.38281V11.6553C84.1385 11.7973 84.1825 11.9528 84.1826 12.1201C84.1826 12.2876 84.1395 12.4438 84.0723 12.5859V46.957C88.7519 49.098 92.0059 53.8251 92.0059 59.3906C92.0058 66.8832 85.9457 73.0536 78.4531 73.0537C73.0474 73.0537 68.4008 69.834 66.2246 65.2305H6.94141C3.17869 65.2303 0 61.8495 0 57.8477V7.38281C0 3.38096 3.17869 0.00020752 6.94141 0H77.1299ZM78.4541 55.3135C78.1577 55.3124 77.8741 55.432 77.667 55.6436L71.8271 61.5928C71.4007 62.0269 71.4077 62.7249 71.8418 63.1514C72.2759 63.5776 72.973 63.5708 73.3994 63.1367L78.4531 57.9893L83.3955 63.0273C83.8219 63.4615 84.52 63.4684 84.9541 63.042C85.389 62.6157 85.3957 61.9185 84.9707 61.4844L79.2402 55.6445C79.0331 55.433 78.7493 55.3135 78.4541 55.3135ZM2.2041 13.2227V57.8477C2.2041 60.6551 4.37311 63.0262 6.94141 63.0264H65.4043C65.0837 61.8651 64.8994 60.6488 64.8994 59.3906C64.8994 59.2793 64.9138 59.1699 64.916 59.0586H36.1416C34.0515 59.0586 32.2843 57.1925 32.2842 54.9834V21.8174C32.2842 19.531 33.9797 17.7402 36.1416 17.7402H73.9355C76.0256 17.7405 77.792 19.6083 77.792 21.8174V45.7617C78.0123 45.7507 78.2295 45.7275 78.4531 45.7275C79.6351 45.7276 80.7754 45.8936 81.8682 46.1777V13.2227H2.2041ZM25.0127 40.4385C26.2488 40.4386 27.2156 41.4542 27.2158 42.752V56.6367C27.2158 57.9732 26.2279 59.0594 25.0127 59.0596H8.9248C7.68873 59.0593 6.7217 58.0439 6.72168 56.7461V42.752C6.7219 41.4984 7.73069 40.4387 8.9248 40.4385H25.0127ZM8.9248 42.6426C8.97206 42.6437 8.92505 42.7003 8.9248 42.752V56.7461C8.92481 56.8221 8.94847 56.8652 8.95508 56.874L24.9443 56.8555C24.9719 56.8246 25.0127 56.7525 25.0127 56.6357V42.752C25.0126 42.6751 24.9901 42.6329 24.9824 42.623L8.9248 42.6426ZM36.1416 19.9434C35.2149 19.9434 34.4883 20.7673 34.4883 21.8174V54.9844C34.4884 56.0553 35.3615 56.8564 36.1416 56.8564H65.1445C66.1527 51.4926 70.2879 47.1991 75.5879 46.041V21.8174C75.5879 20.7135 74.7178 19.9436 73.9355 19.9434H36.1416ZM25.0127 17.7402C26.2488 17.7404 27.2157 18.7559 27.2158 20.0537V33.9375C27.2158 35.1924 26.207 36.2528 25.0127 36.2529H8.9248C7.68872 36.2527 6.7217 35.2353 6.72168 33.9375V20.0537C6.72181 18.8 7.73064 17.7405 8.9248 17.7402H25.0127ZM8.9248 19.9434C8.97101 19.9445 8.92495 20.0009 8.9248 20.0537V33.9375C8.92481 34.0144 8.94829 34.0573 8.95605 34.0674L24.9561 34.0488C24.9803 34.0268 25.0127 33.9816 25.0127 33.9375V20.0537C25.0126 19.9778 24.9903 19.9347 24.9814 19.9248L8.9248 19.9434ZM6.94141 2.2041C4.37311 2.20431 2.2041 4.57539 2.2041 7.38281V11.0186H81.8682V7.38281C81.8682 4.57536 79.6992 2.20426 77.1309 2.2041H6.94141ZM63.9082 4.73828C64.8999 4.73828 65.6709 5.61965 65.6709 6.61133C65.6708 7.71313 64.8998 8.48438 63.9082 8.48438C62.9166 8.48432 62.0354 7.7131 62.1455 6.61133C62.1455 5.5095 62.9166 4.73833 63.9082 4.73828ZM69.3076 4.73828C70.2992 4.73841 71.0703 5.61972 71.0703 6.61133C71.0703 7.71305 70.2992 8.48426 69.3076 8.48438C68.316 8.48438 67.544 7.71313 67.5439 6.61133C67.5439 5.50946 68.3159 4.73828 69.3076 4.73828ZM74.8164 4.73828C75.8081 4.73828 76.5801 5.61965 76.5801 6.61133C76.58 7.71313 75.808 8.48438 74.8164 8.48438C73.8249 8.48419 73.0538 7.713 73.0537 6.61133C73.0537 5.50959 73.8249 4.73846 74.8164 4.73828Z" fill="#8BED02"/>
</svg>
