<svg width="186" height="215" viewBox="0 0 186 215" fill="none" xmlns="http://www.w3.org/2000/svg">
<path d="M85.5205 0C100.465 0 112.592 11.7682 113.13 26.793L114.713 73.5752C114.759 73.5728 114.796 73.5479 114.843 73.5479H120.951C132.167 73.5479 141.821 82.8943 142.933 94.8232L147.089 149.354C147.14 150.03 146.905 150.703 146.443 151.201C145.982 151.7 145.332 151.982 144.652 151.982H105.35C105.482 152.283 105.557 152.611 105.56 152.96C105.56 165.121 97.819 175.875 86.2959 179.711C86.291 179.713 86.2881 179.711 86.2832 179.714C86.0389 179.794 85.7819 179.838 85.5205 179.838C85.2593 179.838 85.0029 179.794 84.7588 179.714C84.7564 179.712 84.7515 179.711 84.749 179.711C78.164 177.517 72.8222 173.06 69.4453 167.377C69.1302 167.526 68.7882 167.621 68.417 167.621C53.5974 167.621 41.5391 179.679 41.5391 194.499C41.5391 195.85 40.4443 196.942 39.0957 196.942C37.7469 196.942 36.6514 195.85 36.6514 194.499C36.6514 188.347 38.438 182.617 41.4775 177.747C40.6665 177.696 39.8506 177.64 39.0957 177.64C20.2322 177.64 4.88672 192.984 4.88672 211.848C4.88667 213.199 3.79211 214.291 2.44336 214.291C1.09465 214.291 5.19514e-05 213.199 0 211.848C0 190.291 17.5395 172.752 39.0957 172.752C40.9892 172.752 43.0049 172.931 44.9766 173.139C50.5451 167.03 58.4449 163.111 67.2656 162.793C66.1221 159.707 65.4844 156.393 65.4844 152.96C65.4844 152.611 65.5605 152.283 65.6924 151.982H26.1445C25.4654 151.982 24.8152 151.7 24.3535 151.201C23.8893 150.703 23.6577 150.03 23.709 149.354L27.8623 94.8643C28.9743 82.894 38.6313 73.5479 49.8467 73.5479H55.9551C56.0869 73.5479 56.1993 73.6039 56.3262 73.6211L57.9121 26.7949C58.4472 11.7678 70.5741 0.000222998 85.5205 0ZM127.549 162.734C139.143 162.735 149.603 169.756 154.224 180.422C156.017 180.046 157.879 179.838 159.802 179.838C174.462 179.838 185.947 191.323 185.944 205.983C185.944 207.335 184.852 208.427 183.501 208.427C182.15 208.427 181.058 207.334 181.058 205.983C181.058 194.062 171.721 184.726 159.802 184.726C147.88 184.726 138.544 194.062 138.544 205.983C138.544 207.335 137.452 208.427 136.101 208.427C134.749 208.427 133.657 207.335 133.657 205.983C133.657 194.995 140.108 185.793 149.511 181.871C145.555 173.263 137.007 167.621 127.549 167.621C114.21 167.621 103.358 178.473 103.358 191.812C103.358 193.163 102.266 194.255 100.915 194.255C99.5639 194.255 98.4719 193.163 98.4717 191.812C98.4717 175.78 111.515 162.734 127.549 162.734ZM90.6523 156.381C90.6523 159.313 88.2085 161.513 85.2764 161.513C82.3443 161.513 80.1457 159.313 79.9014 156.381L79.7148 151.985H70.1641C70.2935 152.283 70.371 152.611 70.3711 152.96C70.3711 162.736 76.4286 171.396 85.5205 174.785C94.6102 171.396 100.67 162.736 100.67 152.96C100.67 152.611 100.749 152.283 100.881 151.982H90.8398L90.6523 156.381ZM56.165 78.3936C56.0918 78.3985 56.0283 78.4346 55.9551 78.4346H49.8467C41.1285 78.4346 33.6098 85.8335 32.7324 95.2773L28.7812 147.096H53.8369L56.165 78.3936ZM117.203 147.096H142.016L138.062 95.2363C137.188 85.8315 129.667 78.4346 120.951 78.4346H114.877L117.203 147.096ZM62.7969 26.9658L59.2344 132.191H78.8721L77.9463 110.444C77.7019 106.29 81.1227 102.869 85.0322 102.869C89.4304 103.113 92.8518 106.535 92.6074 110.444L91.6807 132.191H111.811L108.247 26.9609C108.245 26.9317 108.24 26.9048 108.24 26.8779H62.8037C62.8013 26.9072 62.7969 26.9365 62.7969 26.9658ZM85.5205 40.3174C93.7402 40.3174 100.426 47.0021 100.426 55.2217C100.426 63.4415 93.7378 70.127 85.5205 70.127C77.3009 70.1267 70.6162 63.4413 70.6162 55.2217C70.6164 47.0022 77.3011 40.3176 85.5205 40.3174ZM148.301 50.8066C149.256 49.8514 150.801 49.8513 151.756 50.8066C152.711 51.762 152.711 53.3063 151.756 54.2617C150.8 55.2196 150.272 56.4711 150.272 57.7881C150.273 59.105 150.798 60.3557 151.756 61.3135C153.669 63.2267 156.894 63.2267 158.808 61.3135C159.763 60.3582 161.307 60.3581 162.263 61.3135C163.218 62.2688 163.218 63.8132 162.263 64.7686C160.384 66.65 157.903 67.6836 155.281 67.6836C152.66 67.6835 150.18 66.6475 148.301 64.7686C146.422 62.8896 145.386 60.4098 145.386 57.7881C145.386 55.1663 146.419 52.6857 148.301 50.8066ZM85.5205 45.2041C79.9962 45.2044 75.5032 49.6974 75.5029 55.2217C75.5029 60.7462 79.9961 65.24 85.5205 65.2402C91.0452 65.2402 95.5391 60.7463 95.5391 55.2217C95.5388 49.6972 91.045 45.2041 85.5205 45.2041ZM28.5879 38.5723C29.5505 37.6268 31.0998 37.6441 32.043 38.6064C32.9861 39.5692 32.9715 41.1184 32.0088 42.0615L27.5576 46.4258L32.0088 50.79C32.9715 51.7332 32.9886 53.28 32.043 54.2451C31.5641 54.7336 30.9315 54.9775 30.2988 54.9775C29.6831 54.9775 29.0644 54.746 28.5879 54.2793L24.0684 49.8467L19.5479 54.2793C19.0714 54.746 18.4527 54.9775 17.8369 54.9775C17.2043 54.9775 16.5716 54.7336 16.0928 54.2451C15.1472 53.2824 15.1643 51.7332 16.127 50.79L20.5791 46.4258L16.127 42.0615C15.1642 41.1183 15.1472 39.5716 16.0928 38.6064C17.0384 37.644 18.5828 37.6292 19.5479 38.5723L24.0684 43.0049L28.5879 38.5723Z" fill="#01112B"/>
</svg>
